<mxfile host="app.diagrams.net" modified="2023-07-14T05:29:08.176Z" agent="Mozilla/5.0 (Windows NT 10.0; Win64; x64) AppleWebKit/537.36 (KHTML, like Gecko) Chrome/114.0.0.0 Safari/537.36 Edg/114.0.1823.79" etag="He5lmMrZ-Zx8C4Ap7l1D" version="21.6.2" type="device">
  <diagram name="Page-1" id="K6UgD4kqSmbPpRhTwACa">
    <mxGraphModel dx="1266" dy="746" grid="1" gridSize="10" guides="1" tooltips="1" connect="1" arrows="1" fold="1" page="1" pageScale="1" pageWidth="850" pageHeight="1100" math="0" shadow="0">
      <root>
        <mxCell id="0" />
        <mxCell id="1" parent="0" />
        <mxCell id="auHC2lMCmRA8J_y3KW6C-5" value="Casos de uso mÃ¡quina" style="swimlane;fillStyle=solid;swimlaneFillColor=default;container=0;" parent="1" vertex="1">
          <mxGeometry x="140" y="10" width="590" height="591.75" as="geometry">
            <mxRectangle x="105" y="130" width="100" height="30" as="alternateBounds" />
          </mxGeometry>
        </mxCell>
        <mxCell id="v4G_ObGwsf4DBaVxpbZ9-63" value="Bloquear inputs" style="rounded=1;whiteSpace=wrap;html=1;perimeterSpacing=0;arcSize=120;" parent="auHC2lMCmRA8J_y3KW6C-5" vertex="1">
          <mxGeometry x="175" y="470" width="110" height="43.5" as="geometry" />
        </mxCell>
        <mxCell id="v4G_ObGwsf4DBaVxpbZ9-44" value="Asignar prioridad auto/manual" style="rounded=1;whiteSpace=wrap;html=1;perimeterSpacing=0;arcSize=120;" parent="auHC2lMCmRA8J_y3KW6C-5" vertex="1">
          <mxGeometry x="340" y="450" width="110" height="43.5" as="geometry" />
        </mxCell>
        <mxCell id="auHC2lMCmRA8J_y3KW6C-52" style="rounded=0;orthogonalLoop=1;jettySize=auto;html=1;entryX=0;entryY=0.5;entryDx=0;entryDy=0;jumpStyle=arc;endArrow=none;endFill=0;" parent="1" target="auHC2lMCmRA8J_y3KW6C-15" edge="1">
          <mxGeometry relative="1" as="geometry">
            <mxPoint x="80" y="250" as="sourcePoint" />
          </mxGeometry>
        </mxCell>
        <mxCell id="auHC2lMCmRA8J_y3KW6C-2" value="&amp;lt;&amp;lt;usuario&amp;gt;&amp;gt;&lt;br&gt;esgrimista o arbitro" style="shape=umlActor;verticalLabelPosition=bottom;verticalAlign=top;html=1;outlineConnect=0;" parent="1" vertex="1">
          <mxGeometry x="40" y="221.75" width="30" height="60" as="geometry" />
        </mxCell>
        <mxCell id="v4G_ObGwsf4DBaVxpbZ9-22" style="rounded=0;orthogonalLoop=1;jettySize=auto;html=1;entryX=0.021;entryY=0.348;entryDx=0;entryDy=0;jumpStyle=arc;endArrow=none;endFill=0;entryPerimeter=0;" parent="1" target="v4G_ObGwsf4DBaVxpbZ9-21" edge="1">
          <mxGeometry relative="1" as="geometry">
            <mxPoint x="80" y="270" as="sourcePoint" />
            <mxPoint x="250" y="242" as="targetPoint" />
          </mxGeometry>
        </mxCell>
        <mxCell id="v4G_ObGwsf4DBaVxpbZ9-29" style="rounded=0;orthogonalLoop=1;jettySize=auto;html=1;entryX=0;entryY=0.5;entryDx=0;entryDy=0;jumpStyle=arc;endArrow=none;endFill=0;" parent="1" target="v4G_ObGwsf4DBaVxpbZ9-28" edge="1">
          <mxGeometry relative="1" as="geometry">
            <mxPoint x="80" y="230" as="sourcePoint" />
            <mxPoint x="250" y="242" as="targetPoint" />
          </mxGeometry>
        </mxCell>
        <mxCell id="v4G_ObGwsf4DBaVxpbZ9-21" value="Enviar comando remoto" style="rounded=1;whiteSpace=wrap;html=1;perimeterSpacing=0;arcSize=120;" parent="1" vertex="1">
          <mxGeometry x="245" y="330" width="120" height="43.5" as="geometry" />
        </mxCell>
        <mxCell id="v4G_ObGwsf4DBaVxpbZ9-23" value="&amp;lt;&amp;lt;includes&amp;gt;&amp;gt;" style="endArrow=open;endSize=9;endFill=0;html=1;rounded=0;dashed=1;entryX=0.18;entryY=0.075;entryDx=0;entryDy=0;exitX=0.5;exitY=1;exitDx=0;exitDy=0;entryPerimeter=0;" parent="1" source="auHC2lMCmRA8J_y3KW6C-15" target="v4G_ObGwsf4DBaVxpbZ9-21" edge="1">
          <mxGeometry width="160" relative="1" as="geometry">
            <mxPoint x="372.15999999999997" y="253.5" as="sourcePoint" />
            <mxPoint x="270.00000000000057" y="291.30700000000024" as="targetPoint" />
          </mxGeometry>
        </mxCell>
        <mxCell id="v4G_ObGwsf4DBaVxpbZ9-65" value="&amp;lt;&amp;lt;extends&amp;gt;&amp;gt;" style="endArrow=open;endSize=9;endFill=0;html=1;rounded=0;dashed=1;entryX=0.249;entryY=0.941;entryDx=0;entryDy=0;exitX=0.5;exitY=0;exitDx=0;exitDy=0;entryPerimeter=0;" parent="1" source="v4G_ObGwsf4DBaVxpbZ9-64" target="v4G_ObGwsf4DBaVxpbZ9-21" edge="1">
          <mxGeometry width="160" relative="1" as="geometry">
            <mxPoint x="370" y="400" as="sourcePoint" />
            <mxPoint x="370" y="476" as="targetPoint" />
          </mxGeometry>
        </mxCell>
        <mxCell id="v4G_ObGwsf4DBaVxpbZ9-67" value="&amp;lt;&amp;lt;extends&amp;gt;&amp;gt;" style="endArrow=open;endSize=9;endFill=0;html=1;rounded=0;dashed=1;entryX=0.5;entryY=1;entryDx=0;entryDy=0;exitX=0.5;exitY=0;exitDx=0;exitDy=0;" parent="1" source="v4G_ObGwsf4DBaVxpbZ9-63" target="v4G_ObGwsf4DBaVxpbZ9-21" edge="1">
          <mxGeometry width="160" relative="1" as="geometry">
            <mxPoint x="255" y="490" as="sourcePoint" />
            <mxPoint x="295" y="391" as="targetPoint" />
          </mxGeometry>
        </mxCell>
        <mxCell id="v4G_ObGwsf4DBaVxpbZ9-69" value="&amp;lt;&amp;lt;extends&amp;gt;&amp;gt;" style="endArrow=open;endSize=9;endFill=0;html=1;rounded=0;dashed=1;entryX=0.865;entryY=0.874;entryDx=0;entryDy=0;exitX=0.16;exitY=0.124;exitDx=0;exitDy=0;entryPerimeter=0;exitPerimeter=0;" parent="1" source="v4G_ObGwsf4DBaVxpbZ9-44" target="v4G_ObGwsf4DBaVxpbZ9-21" edge="1">
          <mxGeometry width="160" relative="1" as="geometry">
            <mxPoint x="275" y="510" as="sourcePoint" />
            <mxPoint x="315" y="411" as="targetPoint" />
          </mxGeometry>
        </mxCell>
        <mxCell id="v4G_ObGwsf4DBaVxpbZ9-70" value="&amp;lt;&amp;lt;extends&amp;gt;&amp;gt;" style="endArrow=open;endSize=9;endFill=0;html=1;rounded=0;dashed=1;entryX=0.5;entryY=0;entryDx=0;entryDy=0;exitX=0.261;exitY=0.947;exitDx=0;exitDy=0;exitPerimeter=0;" parent="1" source="v4G_ObGwsf4DBaVxpbZ9-45" target="v4G_ObGwsf4DBaVxpbZ9-21" edge="1">
          <mxGeometry width="160" relative="1" as="geometry">
            <mxPoint x="360" y="249" as="sourcePoint" />
            <mxPoint x="400" y="150" as="targetPoint" />
          </mxGeometry>
        </mxCell>
        <mxCell id="v4G_ObGwsf4DBaVxpbZ9-72" value="&amp;lt;&amp;lt;extends&amp;gt;&amp;gt;" style="endArrow=open;endSize=9;endFill=0;html=1;rounded=0;dashed=1;entryX=0.691;entryY=0.023;entryDx=0;entryDy=0;exitX=0.092;exitY=0.794;exitDx=0;exitDy=0;entryPerimeter=0;exitPerimeter=0;" parent="1" source="v4G_ObGwsf4DBaVxpbZ9-37" target="v4G_ObGwsf4DBaVxpbZ9-21" edge="1">
          <mxGeometry width="160" relative="1" as="geometry">
            <mxPoint x="434" y="129" as="sourcePoint" />
            <mxPoint x="342" y="341" as="targetPoint" />
          </mxGeometry>
        </mxCell>
        <mxCell id="v4G_ObGwsf4DBaVxpbZ9-73" value="&amp;lt;&amp;lt;extends&amp;gt;&amp;gt;" style="endArrow=open;endSize=9;endFill=0;html=1;rounded=0;dashed=1;entryX=0.803;entryY=0.075;entryDx=0;entryDy=0;entryPerimeter=0;exitX=0.035;exitY=0.681;exitDx=0;exitDy=0;exitPerimeter=0;" parent="1" source="v4G_ObGwsf4DBaVxpbZ9-46" target="v4G_ObGwsf4DBaVxpbZ9-21" edge="1">
          <mxGeometry x="-0.4705" width="160" relative="1" as="geometry">
            <mxPoint x="530" y="190" as="sourcePoint" />
            <mxPoint x="363" y="348" as="targetPoint" />
            <mxPoint as="offset" />
          </mxGeometry>
        </mxCell>
        <mxCell id="v4G_ObGwsf4DBaVxpbZ9-74" value="&amp;lt;&amp;lt;extends&amp;gt;&amp;gt;" style="endArrow=open;endSize=9;endFill=0;html=1;rounded=0;dashed=1;entryX=0.955;entryY=0.249;entryDx=0;entryDy=0;exitX=0;exitY=0.5;exitDx=0;exitDy=0;entryPerimeter=0;" parent="1" source="v4G_ObGwsf4DBaVxpbZ9-41" target="v4G_ObGwsf4DBaVxpbZ9-21" edge="1">
          <mxGeometry width="160" relative="1" as="geometry">
            <mxPoint x="465" y="190" as="sourcePoint" />
            <mxPoint x="352" y="344" as="targetPoint" />
          </mxGeometry>
        </mxCell>
        <mxCell id="v4G_ObGwsf4DBaVxpbZ9-64" value="Intercambiar puntaje" style="rounded=1;whiteSpace=wrap;html=1;perimeterSpacing=0;arcSize=120;" parent="1" vertex="1">
          <mxGeometry x="180" y="470" width="110" height="43.5" as="geometry" />
        </mxCell>
        <mxCell id="v4G_ObGwsf4DBaVxpbZ9-75" value="&amp;lt;&amp;lt;extends&amp;gt;&amp;gt;" style="endArrow=open;endSize=9;endFill=0;html=1;rounded=0;dashed=1;entryX=1;entryY=0.5;entryDx=0;entryDy=0;exitX=0;exitY=0.5;exitDx=0;exitDy=0;" parent="1" source="v4G_ObGwsf4DBaVxpbZ9-52" target="v4G_ObGwsf4DBaVxpbZ9-21" edge="1">
          <mxGeometry width="160" relative="1" as="geometry">
            <mxPoint x="609" y="272" as="sourcePoint" />
            <mxPoint x="374" y="365" as="targetPoint" />
          </mxGeometry>
        </mxCell>
        <mxCell id="v4G_ObGwsf4DBaVxpbZ9-76" value="&amp;lt;&amp;lt;extends&amp;gt;&amp;gt;" style="endArrow=open;endSize=9;endFill=0;html=1;rounded=0;dashed=1;entryX=0.972;entryY=0.711;entryDx=0;entryDy=0;entryPerimeter=0;exitX=0;exitY=0.5;exitDx=0;exitDy=0;" parent="1" source="v4G_ObGwsf4DBaVxpbZ9-36" target="v4G_ObGwsf4DBaVxpbZ9-21" edge="1">
          <mxGeometry width="160" relative="1" as="geometry">
            <mxPoint x="530" y="400" as="sourcePoint" />
            <mxPoint x="375" y="362" as="targetPoint" />
          </mxGeometry>
        </mxCell>
        <mxCell id="v4G_ObGwsf4DBaVxpbZ9-28" value="Cambiar puntos auto/manual" style="rounded=1;whiteSpace=wrap;html=1;perimeterSpacing=0;arcSize=120;" parent="1" vertex="1">
          <mxGeometry x="180" y="80" width="120" height="43.5" as="geometry" />
        </mxCell>
        <mxCell id="auHC2lMCmRA8J_y3KW6C-15" value="Sincronizar nuevo control" style="rounded=1;whiteSpace=wrap;html=1;perimeterSpacing=0;arcSize=120;" parent="1" vertex="1">
          <mxGeometry x="180" y="176.5" width="130" height="43.5" as="geometry" />
        </mxCell>
        <mxCell id="v4G_ObGwsf4DBaVxpbZ9-45" value="Reestablecer" style="rounded=1;whiteSpace=wrap;html=1;perimeterSpacing=0;arcSize=120;" parent="1" vertex="1">
          <mxGeometry x="350" y="83.5" width="100" height="40" as="geometry" />
        </mxCell>
        <mxCell id="v4G_ObGwsf4DBaVxpbZ9-37" value="Editar temporizador" style="rounded=1;whiteSpace=wrap;html=1;perimeterSpacing=0;arcSize=120;" parent="1" vertex="1">
          <mxGeometry x="430" y="123.5" width="100" height="40" as="geometry" />
        </mxCell>
        <mxCell id="v4G_ObGwsf4DBaVxpbZ9-46" value="Pausar/continuar" style="rounded=1;whiteSpace=wrap;html=1;perimeterSpacing=0;arcSize=120;" parent="1" vertex="1">
          <mxGeometry x="530" y="163.5" width="100" height="40" as="geometry" />
        </mxCell>
        <mxCell id="v4G_ObGwsf4DBaVxpbZ9-41" value="Gestionar puntos" style="rounded=1;whiteSpace=wrap;html=1;perimeterSpacing=0;arcSize=120;" parent="1" vertex="1">
          <mxGeometry x="570" y="230" width="100" height="43.5" as="geometry" />
        </mxCell>
        <mxCell id="v4G_ObGwsf4DBaVxpbZ9-52" value="Aumentar periodo" style="rounded=1;whiteSpace=wrap;html=1;perimeterSpacing=0;arcSize=120;" parent="1" vertex="1">
          <mxGeometry x="590" y="300" width="100" height="43.5" as="geometry" />
        </mxCell>
        <mxCell id="v4G_ObGwsf4DBaVxpbZ9-36" value="Gestionar tarjetas amarillas/rojas" style="rounded=1;whiteSpace=wrap;html=1;perimeterSpacing=0;arcSize=120;" parent="1" vertex="1">
          <mxGeometry x="540" y="373.5" width="120" height="43.5" as="geometry" />
        </mxCell>
      </root>
    </mxGraphModel>
  </diagram>
</mxfile>
